<svg width="32px" height="32px" enable-background="new 0 0 32 32" version="1.1" viewBox="0 0 32 32" xmlns="http://www.w3.org/2000/svg">
 <g id="Close" transform="matrix(1.3308 0 0 1.3321 -5.2945 -5.3132)">
  <path d="m17.459 16.014 8.239-8.194c0.395-0.391 0.395-1.024 0-1.414-0.394-0.391-1.034-0.391-1.428 0l-8.232 8.187-8.308-8.309c-0.394-0.395-1.034-0.395-1.428 0-0.394 0.396-0.394 1.037 0 1.432l8.302 8.303-8.332 8.286c-0.394 0.391-0.394 1.024 0 1.414 0.394 0.391 1.034 0.391 1.428 0l8.325-8.279 8.275 8.276c0.394 0.395 1.034 0.395 1.428 0 0.394-0.396 0.394-1.037 0-1.432z" color="#000000" style="-inkscape-stroke:none"/>
  <path d="m7.0156 5.4902c-0.3877 0-0.77576 0.14807-1.0684 0.44141-0.58428 0.58724-0.585 1.5502 0 2.1367l7.9492 7.9492-7.9766 7.9336c-0.58414 0.5812-0.58578 1.5432 0 2.123 0.58616 0.58169 1.5467 0.58169 2.1328 0l7.9707-7.9277 7.9238 7.9238c0.58538 0.58474 1.5502 0.58408 2.1348-2e-3 0.58428-0.58724 0.585-1.5502 0-2.1367l-7.9141-7.916 7.8809-7.8398c0.58675-0.58081 0.58748-1.545 0-2.125-0.58628-0.58033-1.5452-0.58124-2.1309 0l-7.8789 7.836-7.9551-7.9551c-0.29259-0.29334-0.68066-0.44141-1.0684-0.44141zm-0.35938 1.1465c0.20281-0.20332 0.51789-0.20332 0.7207 0l8.6602 8.6621 8.5859-8.5391v0.00195c0.20184-0.2003 0.52081-0.2003 0.72266 0h2e-3c0.20252 0.19996 0.2013 0.50193-2e-3 0.70312l-8.5957 8.5488 0.35547 0.35352 8.2676 8.2695c0.203 0.20351 0.20372 0.52181 0 0.72656-0.20281 0.20332-0.51594 0.20332-0.71875 0l-8.6289-8.6289-8.6777 8.6309v-2e-3c-0.20184 0.2003-0.52081 0.2003-0.72266 0h-0.00195c-0.20176-0.19966-0.20054-0.50213 0.00195-0.70308l8.6875-8.6406-8.6562-8.6562c-0.203-0.20351-0.20372-0.52181 0-0.72656z" color="#000000" style="-inkscape-stroke:none"/>
 </g>
</svg>
