<svg id="Icons" enable-background="new 0 0 32 32" version="1.1" viewBox="0 0 32 32" xmlns="http://www.w3.org/2000/svg">
 <style type="text/css">.st0{fill:none;stroke:#000000;stroke-width:2;stroke-linecap:round;stroke-linejoin:round;stroke-miterlimit:10;}</style>
 <path d="m27.963 3.2892c-0.3418-0.22786-0.79752-0.22786-1.1393 0-3.9876 2.5065-6.9498 0.91145-10.254-0.91145-3.418-1.8229-7.4056-3.8737-12.533-0.79752-0.3418 0.3418-0.56966 0.68359-0.56966 1.1393v28.141c0 0.68359 0.45573 1.1393 1.1393 1.1393 0.68359 0 1.1393-0.45573 1.1393-1.1393v-11.507c3.7598-2.0508 6.4941-0.56966 9.6842 1.1393 2.1647 1.1393 4.5573 2.3926 7.2916 2.3926 1.595 0 3.418-0.45573 5.2409-1.595 0.3418-0.22786 0.56966-0.56966 0.56966-1.0254v-15.95c0-0.45573-0.22786-0.79752-0.56966-1.0254z" stroke-width="1.1393"/>
</svg>
