<svg width="32px" height="32px" enable-background="new 0 0 32 32" version="1.1" viewBox="0 0 32 32" xmlns="http://www.w3.org/2000/svg">
 <g>
  <path d="m29.576 0.48485h-27.152c-1.0715 0-1.9394 0.86788-1.9394 1.9394v27.152c0 1.0715 0.86788 1.9394 1.9394 1.9394h27.152c1.0705 0 1.9394-0.86788 1.9394-1.9394v-27.152c0-1.0715-0.86885-1.9394-1.9394-1.9394zm0 29.091h-27.152v-27.152h27.152z" color="#000000" stroke-width=".9697" style="-inkscape-stroke:none"/>
  <path d="m2.4238 0c-1.3333 0-2.4238 1.0905-2.4238 2.4238v27.152c0 1.3333 1.0905 2.4238 2.4238 2.4238h27.152c1.3326 0 2.4238-1.0902 2.4238-2.4238v-27.152c0-1.3336-1.0912-2.4238-2.4238-2.4238zm0 0.96875h27.152c0.8085 0 1.4551 0.64566 1.4551 1.4551v27.152c0 0.80942-0.64658 1.4551-1.4551 1.4551h-27.152c-0.80971 0-1.4551-0.64537-1.4551-1.4551v-27.152c0-0.80971 0.64537-1.4551 1.4551-1.4551zm-0.48438 0.9707v28.121h28.121v-28.121zm0.96875 0.96875h26.184v26.184h-26.184z" color="#000000" style="-inkscape-stroke:none"/>
 </g>
</svg>
