<svg width="24" height="24" fill="none" stroke="#000" stroke-linecap="round" stroke-linejoin="round" stroke-width="2" version="1.1" viewBox="0 0 24 24" xmlns="http://www.w3.org/2000/svg">
 <g transform="matrix(1.0667 0 0 1.0667 -.8 -.79998)" fill="#000" stroke="none">
  <path d="m4 2c-1.645 0-3 1.355-3 3v14c0 1.645 1.355 3 3 3h16c1.645 0 3-1.355 3-3v-11c0-1.645-1.355-3-3-3h-8.4648l-1.7031-2.5547a1.0001 1.0001 0 0 0-0.83203-0.44531zm0 2h4.4648l1.7031 2.5547a1.0001 1.0001 0 0 0 0.83203 0.44531h9c0.56413 0 1 0.43587 1 1v11c0 0.56413-0.43587 1-1 1h-16c-0.56413 0-1-0.43587-1-1v-14c0-0.56413 0.43587-1 1-1z" color="#000000" style="-inkscape-stroke:none"/>
  <path d="m4 1.75c-1.7823 0-3.25 1.4677-3.25 3.25v14c0 1.7823 1.4677 3.25 3.25 3.25h16c1.7823 0 3.25-1.4677 3.25-3.25v-11c0-1.7823-1.4677-3.25-3.25-3.25h-8.3301l-1.6289-2.4434c-0.23167-0.34748-0.62339-0.55661-1.041-0.55664zm0 0.5h5c0.25106 2.03e-5 0.48573 0.1251 0.625 0.33398l1.7012 2.5547a0.25002 0.25002 0 0 0 0.20898 0.11133h8.4648c1.5077 0 2.75 1.2423 2.75 2.75v11c0 1.5077-1.2423 2.75-2.75 2.75h-16c-1.5077 0-2.75-1.2423-2.75-2.75v-14c0-1.5077 1.2423-2.75 2.75-2.75zm0 1.5c-0.6929 0-1.25 0.5571-1.25 1.25v14c0 0.6929 0.5571 1.25 1.25 1.25h16c0.6929 0 1.25-0.5571 1.25-1.25v-11c0-0.6929-0.5571-1.25-1.25-1.25h-9c-0.25106-2.04e-5 -0.48573-0.1251-0.625-0.33398l-1.7012-2.5547a0.25002 0.25002 0 0 0-0.20898-0.11133zm0 0.5h4.3301l1.6289 2.4434c0.23167 0.34748 0.62339 0.55661 1.041 0.55664h9c0.43535 0 0.75 0.31465 0.75 0.75v11c0 0.43536-0.31464 0.75-0.75 0.75h-16c-0.43535 0-0.75-0.31465-0.75-0.75v-14c0-0.43535 0.31465-0.75 0.75-0.75z" color="#000000" style="-inkscape-stroke:none"/>
 </g>
</svg>
