<svg width="24" height="24" version="1.1" viewBox="0 0 24 24" xmlns="http://www.w3.org/2000/svg">
 <g transform="matrix(1.2,0,0,1.2,-2.4,-2.4)" stroke-linecap="round" stroke-linejoin="round">
  <path d="m5 2c-1.645 0-3 1.355-3 3v14c0 1.645 1.355 3 3 3h14c1.645 0 3-1.355 3-3v-11a1.0001 1.0001 0 0 0-0.29297-0.70703l-5-5a1.0001 1.0001 0 0 0-0.70703-0.29297zm0 2h10.586l4.4141 4.4141v10.586c0 0.56413-0.43587 1-1 1h-14c-0.56413 0-1-0.43587-1-1v-14c0-0.56413 0.43587-1 1-1z" color="#000000" style="-inkscape-stroke:none"/>
  <path d="m7 12a1.0001 1.0001 0 0 0-1 1v8a1 1 0 0 0 1 1 1 1 0 0 0 1-1v-7h8v7a1 1 0 0 0 1 1 1 1 0 0 0 1-1v-8a1.0001 1.0001 0 0 0-1-1z" color="#000000" style="-inkscape-stroke:none"/>
  <path d="m7 2a1 1 0 0 0-1 1v5a1.0001 1.0001 0 0 0 1 1h8a1 1 0 0 0 1-1 1 1 0 0 0-1-1h-7v-4a1 1 0 0 0-1-1z" color="#000000" style="-inkscape-stroke:none"/>
 </g>
</svg>
