<?xml version="1.0" encoding="UTF-8"?>
<svg version="1.1" viewBox="0 0 32 32" xmlns="http://www.w3.org/2000/svg">
 <defs>
  <style>.cls-1{fill:#231f20;}</style>
 </defs>
 <g stroke="#000" data-name="Layer 2">
  <g class="cls-1" stroke="none">
   <path d="m16.47 15.12 9.87 9.88a1 1 0 0 1-1.41 1.41l-9.06-9.06-8.8 8.8a1 1 0 0 1-1.41 0 1 1 0 0 1 0-1.42l9.61-9.61a0.85 0.85 0 0 1 1.2 0z" color="#000000" style="-inkscape-stroke:none"/>
   <path d="m15.869 14.375c-0.3458 0-0.68983 0.13019-0.95117 0.39062h-2e-3l-9.6094 9.6113c-0.58468 0.58204-0.58469 1.5449 0 2.127 4.589e-4 4.56e-4 0.00149-4.55e-4 0.00195 0 4.585e-4 4.56e-4 -4.591e-4 0.0015 0 2e-3 0.58111 0.57556 1.533 0.57489 2.1133-2e-3h0.00195l8.4453-8.4473 8.7207 8.7207 0.01563 0.01172c0.65315 0.55934 1.5467 0.41028 2.0352-0.07813 0.48841-0.48841 0.63942-1.384 0.08008-2.0371l-0.01367-0.01367-9.8828-9.8945h-2e-3c-0.26125-0.26044-0.60723-0.39062-0.95303-0.39062zm-0.24609 1.0996c0.14073-0.14025 0.35341-0.14025 0.49414 0l9.8438 9.8535c0.24083 0.28301 0.15506 0.49338-0.02734 0.67578-0.18293 0.18293-0.39349 0.26881-0.67774 0.02539l-9.3867-9.3867-9.1523 9.1523c-0.19914 0.19796-0.50594 0.19796-0.70508 0-0.20151-0.19987-0.20151-0.50912 0-0.70898l0.00195-2e-3z" color="#000000" style="-inkscape-stroke:none"/>
   <path d="m16.47 5.54 9.87 9.88a1 1 0 0 1-1.41 1.41l-9.06-9.06-8.8 8.8a1 1 0 0 1-1.41 0 1 1 0 0 1 0-1.41l9.61-9.62a0.85 0.85 0 0 1 1.2 0z" color="#000000" style="-inkscape-stroke:none"/>
   <path d="m15.869 4.7949c-0.3458 0-0.68983 0.13019-0.95117 0.39062h-2e-3l-9.6093 9.6211h-0.00195c-0.57749 0.58093-0.57749 1.5343 0 2.1152l0.00195 2e-3c0.58093 0.57749 1.5343 0.57749 2.1152 0h0.00195l8.4453-8.4473 8.7207 8.7207 0.01563 0.01172c0.65315 0.55934 1.5467 0.41028 2.0352-0.07813 0.48841-0.48841 0.63942-1.382 0.08008-2.0352l-0.01367-0.01563-9.8828-9.8945h-2e-3c-0.2613-0.26047-0.60728-0.39066-0.95308-0.39066zm-0.24609 1.0996c0.14073-0.14025 0.35341-0.14025 0.49414 0l9.8438 9.8535c0.24083 0.28301 0.15506 0.49338-0.02734 0.67578-0.1824 0.1824-0.39277 0.26817-0.67578 0.02734l-9.3887-9.3887-9.1523 9.1523c-0.19859 0.19741-0.50394 0.19632-0.70312 0-0.19577-0.19863-0.19577-0.50254 0-0.70117v-2e-3z" color="#000000" style="-inkscape-stroke:none"/>
  </g>
 </g>
</svg>
