<svg width="32px" height="32px" enable-background="new 0 0 32 32" version="1.1" viewBox="0 0 32 32" xmlns="http://www.w3.org/2000/svg">
 <g id="Double_Arrow_Up_x2F_Down" transform="matrix(.96959 0 0 .96959 .48647 .48716)">
  <path d="m27.704 7.19-6.998-6.9c-0.389-0.385-1.04-0.389-1.429 0l-6.999 6.9c-0.395 0.391-0.394 1.024 0 1.414 0.394 0.391 1.034 0.391 1.428 0l5.275-5.2v15.593c0 0.552 0.452 1 1.01 1s1.01-0.448 1.01-1v-15.593l5.275 5.2c0.395 0.391 1.034 0.391 1.428 0 0.395-0.391 0.395-1.024 0-1.414z" color="#000000" style="-inkscape-stroke:none"/>
  <path d="m19.99-0.50195c-0.38689-4.7718e-4 -0.77269 0.14378-1.0664 0.4375l-6.998 6.8984c-0.58705 0.58111-0.58594 1.545 0 2.125 0.58551 0.58105 1.5445 0.58172 2.1309 0.00195l2e-3 -0.00195 4.4219-4.3594v14.396c0 0.82495 0.68414 1.5 1.5098 1.5 0.82562 0 1.5117-0.67505 1.5117-1.5v-14.396l4.4238 4.3613c0.58678 0.57874 1.5456 0.5788 2.1309-0.00195 0.58675-0.58081 0.58553-1.545-2e-3 -2.125l-6.9961-6.8984c-0.293-0.28999-0.68147-0.43702-1.0684-0.4375zm-0.35938 1.1445c0.19056-0.19056 0.53066-0.18807 0.72266 0.001953l2e-3 0.001953 6.998 6.9004c0.20084 0.19996 0.20073 0.50054-2e-3 0.70117v0.0019533c-0.20214 0.2006-0.52122 0.19938-0.72461-0.00195l-6.125-6.0391v16.787c0 0.27905-0.22134 0.5-0.51172 0.5-0.29038 0-0.50976-0.22095-0.50976-0.5v-16.787l-6.127 6.0391v0.0019531c-0.20184 0.2003-0.52082 0.2003-0.72266 0v-0.00195h-2e-3c-0.20149-0.19945-0.20126-0.50028 0-0.70117l7-6.9023z" color="#000000" style="-inkscape-stroke:none"/>
  <path d="m18.294 23.396-5.275 5.2v-15.593c0-0.552-0.452-1-1.01-1s-1.01 0.448-1.01 1v15.593l-5.275-5.2c-0.395-0.391-1.034-0.391-1.428 0-0.395 0.391-0.395 1.024 0 1.414l6.999 6.899c0.389 0.385 1.04 0.389 1.429 0l6.999-6.9c0.395-0.391 0.394-1.024 0-1.414-0.395-0.389-1.035-0.39-1.429 1e-3z" color="#000000" style="-inkscape-stroke:none"/>
  <path d="m12.01 11.504c-0.82562 0-1.5117 0.67505-1.5117 1.5v14.396l-4.4219-4.3594c-0.58661-0.58067-1.547-0.5814-2.1328 0-0.58675 0.58081-0.58553 1.545 0.00195 2.125l6.998 6.8984c0.5849 0.57888 1.5431 0.5841 2.1309 0l7-6.9004c0.58705-0.5811 0.58594-1.545 0-2.125-0.58708-0.57816-1.5464-0.58004-2.1328 2e-3l-4.4219 4.3594v-14.397c0-0.82495-0.68414-1.5-1.5098-1.5zm0 1c0.29038 0 0.50976 0.22095 0.50976 0.5v16.787l6.127-6.0391v-0.001953c0.201-0.19947 0.5216-0.19628 0.72461 2e-3 0.20038 0.20002 0.20238 0.50084 0 0.70117l-7 6.9004v2e-3c-0.19056 0.19056-0.53261 0.18807-0.72461-2e-3l-7-6.9004c-0.20084-0.19996-0.20073-0.50054 0.00195-0.70117v-0.001953c0.20214-0.2006 0.52122-0.19938 0.72461 2e-3l6.125 6.0391v-16.787c0-0.27905 0.22134-0.5 0.51172-0.5z" color="#000000" style="-inkscape-stroke:none"/>
 </g>
</svg>
