{
    "asset" : {
        "generator" : "Khronos glTF Blender I/O v1.2.75",
        "version" : "2.0"
    },
    "scene" : 0,
    "scenes" : [
        {
            "name" : "Scene",
            "nodes" : [
                0
            ]
        }
    ],
    "nodes" : [
        {
            "mesh" : 0,
            "name" : "ship"
        }
    ],
    "materials" : [
        {
            "doubleSided" : true,
            "emissiveFactor" : [
                0,
                0,
                0
            ],
            "name" : "ship",
            "normalTexture" : {
                "index" : 0,
                "texCoord" : 0
            },
            "pbrMetallicRoughness" : {
                "baseColorTexture" : {
                    "index" : 1,
                    "texCoord" : 0
                },
                "metallicRoughnessTexture" : {
                    "index" : 2,
                    "texCoord" : 0
                }
            }
        }
    ],
    "meshes" : [
        {
            "name" : "ship",
            "primitives" : [
                {
                    "attributes" : {
                        "POSITION" : 0,
                        "NORMAL" : 1,
                        "TEXCOORD_0" : 2,
                        "COLOR_0" : 3
                    },
                    "indices" : 4,
                    "material" : 0
                }
            ]
        }
    ],
    "textures" : [
        {
            "source" : 0
        },
        {
            "source" : 1
        },
        {
            "source" : 2
        }
    ],
    "images" : [
        {
            "mimeType" : "image/png",
            "name" : "ship_Normal",
            "uri" : "ship_Normal.png"
        },
        {
            "mimeType" : "image/png",
            "name" : "ship_baseColor",
            "uri" : "ship_baseColor.png"
        },
        {
            "mimeType" : "image/png",
            "name" : "ship_occlusionRoughnessMetallic",
            "uri" : "ship_occlusionRoughnessMetallic.png"
        }
    ],
    "accessors" : [
        {
            "bufferView" : 0,
            "componentType" : 5126,
            "count" : 873,
            "max" : [
                1.2265403270721436,
                0.5875812768936157,
                0.8546610474586487
            ],
            "min" : [
                -1.2265403270721436,
                0.044863998889923096,
                -0.8468151688575745
            ],
            "type" : "VEC3"
        },
        {
            "bufferView" : 1,
            "componentType" : 5126,
            "count" : 873,
            "type" : "VEC3"
        },
        {
            "bufferView" : 2,
            "componentType" : 5126,
            "count" : 873,
            "type" : "VEC2"
        },
        {
            "bufferView" : 3,
            "componentType" : 5126,
            "count" : 873,
            "type" : "VEC4"
        },
        {
            "bufferView" : 4,
            "componentType" : 5123,
            "count" : 1830,
            "type" : "SCALAR"
        }
    ],
    "bufferViews" : [
        {
            "buffer" : 0,
            "byteLength" : 10476,
            "byteOffset" : 0
        },
        {
            "buffer" : 0,
            "byteLength" : 10476,
            "byteOffset" : 10476
        },
        {
            "buffer" : 0,
            "byteLength" : 6984,
            "byteOffset" : 20952
        },
        {
            "buffer" : 0,
            "byteLength" : 13968,
            "byteOffset" : 27936
        },
        {
            "buffer" : 0,
            "byteLength" : 3660,
            "byteOffset" : 41904
        }
    ],
    "buffers" : [
        {
            "byteLength" : 45564,
            "uri" : "ship.bin"
        }
    ]
}
